<svg data-v-fde0c5aa="" xmlns="http://www.w3.org/2000/svg" viewBox="0 0 300 300" class="font"><!----><defs data-v-fde0c5aa=""><!----></defs><rect data-v-fde0c5aa="" fill="transparent" x="0" y="0" width="300px" height="300px" class="logo-background-square"></rect><defs data-v-fde0c5aa=""><linearGradient data-v-fde0c5aa="" gradientTransform="rotate(25)" id="ef1c32ea-57f6-4e10-b2e0-5fa7f901841b" x1="0%" y1="0%" x2="100%" y2="0%"><stop data-v-fde0c5aa="" offset="0%" stop-color="#288B58" stop-opacity="1"></stop><stop data-v-fde0c5aa="" offset="100%" stop-color="#1522F1" stop-opacity="1"></stop></linearGradient></defs><g data-v-fde0c5aa="" id="2cdcf2b4-8ded-40d1-afde-be4c6e65c8b4" fill="url(#ef1c32ea-57f6-4e10-b2e0-5fa7f901841b)" transform="matrix(4,0,0,4,42.11999988555908,122.6800012588501)"><path d="M3.31 1.96L3.31 1.96L3.31 1.96Q4.94 1.96 5.49 3.01L5.49 3.01L5.49 3.01Q5.87 3.80 5.87 4.56L5.87 4.56L5.86 4.56L5.86 4.56Q4.74 4.66 4.33 4.66L4.33 4.66L4.33 4.66Q4.33 4.12 4.00 3.75L4.00 3.75L4.00 3.75Q3.68 3.57 3.42 3.57L3.42 3.57L3.14 3.57L3.14 3.57Q2.45 3.57 2.30 4.11L2.30 4.11L2.30 4.11Q2.26 4.27 2.26 4.35L2.26 4.35L2.26 4.50L2.26 4.50Q2.26 5.26 3.07 5.61L3.07 5.61L3.07 5.61Q3.14 5.67 4.19 6.12L4.19 6.12L4.19 6.12Q4.75 6.38 5.23 6.76L5.23 6.76L5.23 6.77L3.51 6.77L3.51 6.97L5.78 6.97L5.78 7.24L6.06 7.24L6.06 10.21L5.50 10.21L5.50 11.73L1.16 11.73L1.16 10.21L0.13 10.21L0.13 9.18L0.71 9.18L0.71 8.83L0.13 8.83L0.13 8.59L2.12 8.59L2.12 10.21L4.16 10.21L4.16 7.77L2.63 7.77L2.63 6.97L0.74 6.97L0.74 6.77L1.65 6.77L1.65 6.76L1.65 6.76Q0.45 5.96 0.45 4.50L0.45 4.50L0.45 4.37L0.45 4.37Q0.45 3.14 1.20 2.51L1.20 2.51L1.20 2.51Q1.89 1.96 3.31 1.96ZM5.78 6.97L5.78 6.77L6.47 6.77L6.47 6.97L5.78 6.97ZM-0.53 9.18L-0.53 8.83L0.13 8.83L0.13 9.18L-0.53 9.18ZM3.86 8.83L3.86 8.83L4.06 8.83L4.06 8.83Q4.09 8.83 4.09 8.86L4.09 8.86L4.09 8.91L3.92 8.91L3.92 8.97L4.07 8.97L4.07 9.02L4.07 9.02Q4.07 9.05 4.05 9.05L4.05 9.05L3.92 9.05L3.92 9.12L4.09 9.12L4.09 9.17L4.09 9.17Q4.09 9.19 4.06 9.19L4.06 9.19L3.86 9.19L3.86 9.19Q3.82 9.19 3.82 9.17L3.82 9.17L3.82 8.86L3.82 8.86Q3.83 8.83 3.86 8.83ZM3.77 9.31L3.77 9.31L3.83 9.31L3.83 9.31Q3.85 9.31 3.95 9.43L3.95 9.43L3.95 9.43Q4.00 9.31 4.03 9.31L4.03 9.31L4.07 9.31L4.07 9.31Q4.11 9.31 4.11 9.34L4.11 9.34L4.11 9.34Q3.96 9.50 3.96 9.68L3.96 9.68L3.92 9.68L3.92 9.68Q3.88 9.68 3.87 9.49L3.87 9.49L3.87 9.49Q3.77 9.36 3.77 9.31ZM3.73 9.79L3.73 9.79L3.79 9.79L3.79 9.79Q3.83 9.79 3.87 10.00L3.87 10.00L3.90 10.00L3.90 10.00Q3.94 9.79 3.98 9.79L3.98 9.79L4.05 9.79L4.05 9.79Q4.07 9.80 4.07 9.82L4.07 9.82L4.07 10.12L4.07 10.12Q4.07 10.16 4.05 10.16L4.05 10.16L4.00 10.16L4.00 9.95L3.98 9.95L3.92 10.16L3.87 10.16L3.87 10.16Q3.83 10.16 3.79 9.95L3.79 9.95L3.77 9.95L3.77 10.16L3.73 10.16L3.73 10.16Q3.69 10.16 3.69 10.12L3.69 10.12L3.69 9.82L3.69 9.82Q3.70 9.79 3.73 9.79ZM5.60 10.62L5.60 10.29L5.76 10.29L5.76 10.29Q5.89 10.29 5.89 10.42L5.89 10.42L5.89 10.42Q5.86 10.42 5.86 10.45L5.86 10.45L5.86 10.45Q5.91 10.51 5.91 10.56L5.91 10.56L5.91 10.56Q5.87 10.66 5.73 10.66L5.73 10.66L5.63 10.66L5.63 10.66Q5.60 10.66 5.60 10.62L5.60 10.62ZM5.79 10.37L5.69 10.37L5.69 10.43L5.76 10.43L5.76 10.43Q5.79 10.43 5.79 10.40L5.79 10.40L5.79 10.37ZM5.78 10.49L5.69 10.49L5.69 10.58L5.78 10.58L5.78 10.58Q5.81 10.58 5.81 10.54L5.81 10.54L5.81 10.53L5.81 10.53Q5.81 10.49 5.78 10.49L5.78 10.49ZM5.60 11.10L5.60 10.77L5.67 10.77L5.67 10.77Q5.70 10.77 5.81 10.99L5.81 10.99L5.82 10.99L5.82 10.77L5.91 10.77L5.91 11.10L5.91 11.10Q5.91 11.14 5.87 11.14L5.87 11.14L5.84 11.14L5.84 11.14Q5.82 11.14 5.68 10.93L5.68 10.93L5.68 11.10L5.68 11.10Q5.68 11.14 5.65 11.14L5.65 11.14L5.63 11.14L5.63 11.14Q5.60 11.14 5.60 11.10L5.60 11.10ZM10.33 1.93L10.33 1.93L10.33 1.93Q12.43 1.93 13.10 3.41L13.10 3.41L13.10 3.41Q13.47 4.13 13.47 6.18L13.47 6.18L13.47 6.23L12.75 6.23L12.75 6.56L13.47 6.56L13.47 10.09L13.00 10.09L13.00 11.37L12.04 11.37L12.04 11.73L8.72 11.73L8.72 11.37L8.31 11.37L8.31 10.09L7.46 10.09L7.46 9.09L7.97 9.09L7.97 8.57L7.46 8.57L7.46 9.09L6.25 9.09L6.25 8.57L7.16 8.57L7.16 8.57Q7.15 7.37 7.15 6.73L7.15 6.73L7.15 5.90L7.15 5.90Q7.15 3.58 7.94 2.79L7.94 2.79L7.94 2.79Q8.66 1.93 10.33 1.93ZM9.13 5.31L9.13 5.31L9.15 5.31L9.13 5.34L9.13 6.23L8.39 6.23L8.39 6.56L9.13 6.56L9.13 6.56Q9.11 8.67 9.11 9.75L9.11 9.75L9.11 10.09L10.75 10.09L10.75 9.55L11.50 9.55L11.50 9.54L11.50 9.54Q11.50 8.54 11.49 6.75L11.49 6.75L11.49 6.75Q11.49 6.68 11.50 6.37L11.50 6.37L11.50 6.37Q11.50 4.44 11.28 4.00L11.28 4.00L11.28 4.00Q11.05 3.58 10.42 3.58L10.42 3.58L10.18 3.58L10.18 3.58Q9.44 3.58 9.26 4.22L9.26 4.22L9.26 4.22Q9.18 4.55 9.13 5.31ZM13.47 6.56L13.47 6.23L14.65 6.23L14.65 6.56L13.47 6.56ZM13.52 6.64L13.56 6.62L13.59 6.62L13.59 6.62Q13.63 6.62 13.65 6.82L13.65 6.82L13.65 6.82Q13.68 6.82 13.73 6.62L13.73 6.62L13.78 6.62L13.78 6.62Q13.82 6.62 13.85 6.83L13.85 6.83L13.86 6.83L13.91 6.62L13.99 6.62L13.99 6.64L13.99 6.64Q13.92 6.99 13.88 6.99L13.88 6.99L13.82 6.99L13.82 6.99Q13.82 6.97 13.77 6.78L13.77 6.78L13.75 6.78L13.75 6.78Q13.73 6.99 13.69 6.99L13.69 6.99L13.62 6.99L13.62 6.99Q13.57 6.78 13.52 6.64L13.52 6.64ZM13.59 7.11L13.59 7.11L13.65 7.11L13.65 7.11Q13.69 7.11 13.75 7.34L13.75 7.34L13.77 7.34L13.77 7.34Q13.77 7.31 13.83 7.11L13.83 7.11L13.95 7.11L13.95 7.49L13.86 7.49L13.86 7.29L13.85 7.29L13.85 7.29Q13.80 7.49 13.77 7.49L13.77 7.49L13.72 7.49L13.72 7.49Q13.67 7.33 13.67 7.31L13.67 7.31L13.65 7.31L13.65 7.31Q13.65 7.49 13.62 7.49L13.62 7.49L13.56 7.49L13.56 7.14L13.56 7.14Q13.56 7.11 13.59 7.11ZM13.54 7.60L13.54 7.60L13.60 7.60L13.60 7.60Q13.69 7.65 13.69 7.72L13.69 7.72L13.69 7.72Q13.69 7.72 13.78 7.60L13.78 7.60L13.85 7.60L13.85 7.64L13.75 7.78L13.75 7.78Q13.75 7.79 13.86 7.96L13.86 7.96L13.86 7.98L13.78 7.98L13.69 7.86L13.69 7.86Q13.63 7.98 13.60 7.98L13.60 7.98L13.52 7.98L13.52 7.98Q13.64 7.81 13.64 7.78L13.64 7.78L13.64 7.78Q13.54 7.63 13.54 7.60ZM13.59 8.09L13.59 8.09L13.69 8.09L13.69 8.09Q13.85 8.09 13.85 8.21L13.85 8.21L13.85 8.22L13.82 8.27L13.82 8.27Q13.84 8.27 13.86 8.33L13.86 8.33L13.86 8.39L13.86 8.39Q13.83 8.47 13.70 8.47L13.70 8.47L13.56 8.47L13.56 8.13L13.56 8.13Q13.56 8.09 13.59 8.09ZM13.75 8.18L13.65 8.18L13.65 8.24L13.75 8.24L13.75 8.18ZM11.12 8.54L11.12 8.18L11.21 8.18L11.21 8.31L11.33 8.31L11.33 8.21L11.33 8.21Q11.33 8.18 11.36 8.18L11.36 8.18L11.42 8.18L11.42 8.54L11.33 8.54L11.33 8.39L11.21 8.39L11.21 8.54L11.12 8.54ZM13.73 8.31L13.65 8.31L13.65 8.39L13.77 8.39L13.77 8.34L13.77 8.34Q13.77 8.31 13.73 8.31L13.73 8.31ZM13.59 8.59L13.59 8.59L13.80 8.59L13.80 8.59Q13.83 8.59 13.83 8.62L13.83 8.62L13.83 8.67L13.65 8.67L13.65 8.73L13.82 8.73L13.82 8.81L13.65 8.81L13.65 8.88L13.83 8.88L13.83 8.96L13.56 8.96L13.56 8.62L13.56 8.62Q13.56 8.59 13.59 8.59ZM11.12 8.75L11.12 8.67L11.39 8.67L11.39 8.70L11.39 8.70Q11.39 8.76 11.22 8.95L11.22 8.95L11.22 8.95Q11.41 8.95 11.41 8.98L11.41 8.98L11.41 9.03L11.09 9.03L11.09 8.96L11.09 8.96Q11.22 8.82 11.26 8.75L11.26 8.75L11.12 8.75ZM9.39 9.14L9.39 9.14L9.39 9.14Q9.54 9.14 9.56 9.36L9.56 9.36L9.56 9.36Q9.56 9.52 9.36 9.54L9.36 9.54L9.36 9.54Q9.19 9.50 9.19 9.36L9.19 9.36L9.19 9.36Q9.19 9.14 9.39 9.14ZM11.21 9.16L11.21 9.16L11.31 9.16L11.31 9.16Q11.31 9.20 11.44 9.52L11.44 9.52L11.36 9.52L11.36 9.52Q11.33 9.52 11.33 9.45L11.33 9.45L11.21 9.45L11.21 9.45Q11.18 9.45 11.18 9.52L11.18 9.52L11.08 9.52L11.08 9.50L11.08 9.50Q11.12 9.44 11.21 9.16ZM9.30 9.29L9.30 9.29L9.30 9.36L9.30 9.36Q9.30 9.45 9.39 9.45L9.39 9.45L9.39 9.45Q9.46 9.44 9.46 9.36L9.46 9.36L9.46 9.29L9.46 9.29Q9.46 9.26 9.39 9.22L9.39 9.22L9.36 9.22L9.36 9.22Q9.34 9.22 9.30 9.29ZM11.25 9.29L11.25 9.29L11.22 9.37L11.29 9.37L11.29 9.37Q11.27 9.29 11.25 9.29ZM9.36 9.63L9.36 9.63L9.36 9.63Q9.47 9.63 9.52 9.73L9.52 9.73L9.52 9.78L9.44 9.78L9.44 9.78Q9.44 9.71 9.34 9.71L9.34 9.71L9.30 9.78L9.30 9.84L9.30 9.84Q9.30 9.95 9.39 9.95L9.39 9.95L9.39 9.95Q9.41 9.95 9.47 9.86L9.47 9.86L9.54 9.86L9.54 9.86Q9.54 10.00 9.36 10.03L9.36 10.03L9.36 10.03Q9.19 9.98 9.19 9.84L9.19 9.84L9.19 9.84Q9.21 9.63 9.36 9.63ZM14.34 6.32L14.34 1.93L16.23 1.93L16.23 7.11L15.34 7.11L15.34 7.39L16.23 7.39L16.23 8.35L16.23 8.35Q16.23 9.68 16.70 9.91L16.70 9.91L16.70 9.91Q16.94 10.05 17.29 10.05L17.29 10.05L17.88 10.05L17.88 8.34L18.40 8.34L18.40 1.93L20.27 1.93L20.27 7.95L19.59 7.95L19.59 8.39L20.27 8.39L20.27 8.39Q20.25 8.61 20.25 8.71L20.25 8.71L20.25 10.63L19.27 10.63L19.27 11.73L14.89 11.73L14.89 10.38L14.49 10.38L14.49 6.32L14.34 6.32ZM16.23 7.39L16.23 7.11L17.29 7.11L17.29 7.39L16.23 7.39ZM19.37 10.71L19.37 10.71L19.43 10.71L19.43 10.71Q19.47 10.71 19.51 10.94L19.51 10.94L19.52 10.94L19.52 10.94Q19.59 10.74 19.59 10.71L19.59 10.71L19.69 10.71L19.69 10.71Q19.58 11.09 19.54 11.09L19.54 11.09L19.50 11.09L19.50 11.09Q19.46 11.09 19.37 10.71ZM20.73 8.85L20.73 1.93L22.67 1.93L22.67 5.95L22.30 5.95L22.30 10.10L25.19 10.10L25.19 10.97L24.62 10.97L24.62 11.17L25.19 11.17L25.19 11.73L23.32 11.73L23.32 11.58L20.75 11.58L20.75 11.58Q20.73 11.42 20.73 11.33L20.73 11.33L20.73 9.15L21.23 9.15L21.23 8.85L20.73 8.85ZM22.56 9.79L22.43 9.59L22.54 9.59L22.54 9.59Q22.63 9.71 22.64 9.71L22.64 9.71L22.64 9.71Q22.70 9.59 22.72 9.59L22.72 9.59L22.83 9.59L22.83 9.59Q22.80 9.65 22.70 9.79L22.70 9.79L22.70 9.79Q22.73 9.86 22.84 10.02L22.84 10.02L22.72 10.02L22.72 10.02Q22.64 9.95 22.64 9.88L22.64 9.88L22.64 9.88Q22.63 9.88 22.52 10.02L22.52 10.02L22.43 10.02L22.43 10.00L22.56 9.80L22.56 9.79ZM25.19 11.17L25.19 10.97L25.90 10.97L25.90 11.17L25.19 11.17ZM29.07 3.57L29.07 1.93L34.81 1.93L34.81 3.57L32.91 3.57L32.91 10.34L33.77 10.34L33.77 10.54L32.91 10.54L32.91 11.29L32.40 11.29L32.40 11.55L32.76 11.55L32.76 11.73L31.01 11.73L31.01 11.73Q30.98 11.73 30.98 11.70L30.98 11.70L30.98 3.57L29.07 3.57ZM32.89 10.34L32.23 10.34L32.23 10.54L32.89 10.54L32.89 10.34ZM35.24 6.77L35.24 1.94L40.07 1.94L40.07 3.54L40.07 3.54Q40.07 3.58 40.03 3.58L40.03 3.58L37.17 3.58L37.17 5.70L39.74 5.70L39.74 5.71L39.74 5.71Q39.74 5.81 39.70 6.75L39.70 6.75L39.70 6.75Q39.69 6.75 39.69 6.77L39.69 6.77L39.81 6.77L39.81 7.27L37.58 7.27L37.58 9.28L36.98 9.28L36.98 9.47L37.58 9.47L37.58 10.08L40.10 10.08L40.10 10.32L39.90 10.32L39.90 11.52L36.89 11.52L36.89 11.73L35.45 11.73L35.45 8.22L35.24 8.22L35.24 6.99L33.67 6.99L33.67 6.77L35.24 6.77ZM36.06 6.77L35.25 6.77L35.25 6.99L36.06 6.99L36.06 6.77ZM37.73 10.04L37.73 9.59L37.84 9.59L37.84 9.75L37.86 9.75L37.86 9.75Q37.86 9.71 38.01 9.59L38.01 9.59L38.12 9.59L37.96 9.77L38.14 10.04L38.02 10.04L38.02 10.04Q37.89 9.85 37.88 9.85L37.88 9.85L37.88 9.85Q37.84 9.86 37.84 9.88L37.84 9.88L37.84 10.04L37.73 10.04ZM38.30 10.04L38.30 9.59L38.53 9.59L38.53 9.59Q38.64 9.59 38.68 9.72L38.68 9.72L38.68 9.72Q38.68 9.74 38.62 9.84L38.62 9.84L38.62 9.84Q38.66 9.84 38.68 10.04L38.68 10.04L38.60 10.04L38.60 10.04Q38.57 10.04 38.55 9.87L38.55 9.87L38.42 9.87L38.42 10.04L38.30 10.04ZM39.05 9.59L39.05 9.59L39.11 9.59L39.11 9.59Q39.26 9.59 39.29 9.79L39.29 9.79L39.29 9.85L39.29 9.85Q39.29 9.91 39.25 9.97L39.25 9.97L39.25 9.99L39.25 9.99Q39.29 9.99 39.29 10.01L39.29 10.01L39.29 10.01Q39.29 10.04 39.25 10.07L39.25 10.07L39.25 10.07Q39.22 10.07 39.19 10.01L39.19 10.01L39.11 10.04L39.05 10.04L39.05 10.04Q38.88 10.04 38.86 9.79L38.86 9.79L38.86 9.79Q38.91 9.59 39.05 9.59ZM38.98 9.79L38.98 9.79L38.98 9.84L38.98 9.84Q38.98 9.95 39.09 9.95L39.09 9.95L39.11 9.95L39.11 9.93L39.08 9.93L39.08 9.92L39.08 9.92Q39.08 9.89 39.13 9.87L39.13 9.87L39.18 9.90L39.18 9.90Q39.18 9.89 39.19 9.80L39.19 9.80L39.19 9.80Q39.18 9.67 39.06 9.67L39.06 9.67L39.06 9.67Q38.98 9.69 38.98 9.79ZM38.53 9.69L38.42 9.69L38.42 9.79L38.53 9.79L38.53 9.79Q38.57 9.79 38.57 9.75L38.57 9.75L38.57 9.72L38.57 9.72Q38.57 9.69 38.53 9.69L38.53 9.69ZM40.00 10.51L40.00 10.41L40.10 10.41L40.10 10.43L40.10 10.43Q40.10 10.73 40.05 10.73L40.05 10.73L40.05 10.73Q40.00 10.73 40.00 10.51L40.00 10.51ZM40.00 10.84L40.00 10.74L40.10 10.74L40.10 10.84L40.00 10.84ZM44.27 1.93L44.27 1.93L44.27 1.93Q46.32 1.93 46.85 3.21L46.85 3.21L46.85 3.21Q47.00 3.53 47.00 3.63L47.00 3.63L46.14 3.63L46.14 3.89L47.07 3.89L47.07 3.88L47.07 3.88Q47.07 3.81 47.00 3.63L47.00 3.63L48.58 3.63L48.58 3.89L47.09 3.89L47.09 3.91L47.09 3.91Q47.20 4.46 47.25 5.09L47.25 5.09L47.25 5.09Q47.25 5.13 45.45 5.22L45.45 5.22L45.45 5.21L45.45 5.21Q45.45 3.58 44.33 3.58L44.33 3.58L44.14 3.58L44.14 3.58Q43.30 3.58 43.11 4.29L43.11 4.29L43.11 4.29Q42.96 4.89 42.96 5.87L42.96 5.87L42.96 7.20L42.95 7.40L42.33 7.40L42.33 7.71L42.95 7.71L42.95 10.08L45.59 10.08L45.59 7.62L47.10 7.62L47.10 10.08L46.26 10.08L46.26 11.60L44.50 11.60L44.50 11.73L43.13 11.73L43.13 11.60L41.75 11.60L41.75 10.84L42.67 10.84L42.67 10.51L41.29 10.51L41.29 9.39L40.69 9.39L40.69 8.01L41.01 8.01L41.01 8.01Q40.99 7.15 40.99 6.66L40.99 6.66L40.99 6.66Q40.99 4.42 41.21 3.84L41.21 3.84L41.21 3.84Q41.41 3.17 41.86 2.69L41.86 2.69L41.86 2.69Q42.68 1.93 44.27 1.93ZM43.08 9.59L43.08 9.59L43.16 9.59L43.16 9.93L43.36 9.93L43.36 10.04L43.08 10.04L43.08 10.04Q43.05 10.04 43.05 10.00L43.05 10.00L43.05 9.63L43.05 9.63Q43.05 9.59 43.08 9.59ZM45.14 9.60L45.14 9.59L45.24 9.59L45.24 9.59Q45.32 9.66 45.32 9.72L45.32 9.72L45.32 9.72Q45.34 9.72 45.44 9.59L45.44 9.59L45.52 9.59L45.52 9.63L45.52 9.63Q45.40 9.78 45.40 9.84L45.40 9.84L45.40 9.84Q45.42 9.84 45.53 10.01L45.53 10.01L45.53 10.04L45.44 10.04L45.32 9.91L45.32 9.91Q45.26 10.02 45.23 10.04L45.23 10.04L45.12 10.04L45.12 10.04Q45.16 9.97 45.27 9.80L45.27 9.80L45.14 9.60ZM46.49 10.19L46.49 10.19L46.49 10.19Q46.66 10.23 46.66 10.28L46.66 10.28L46.66 10.35L46.59 10.35L46.53 10.28L46.46 10.28L46.46 10.28Q46.42 10.29 46.42 10.32L46.42 10.32L46.42 10.35L46.42 10.35Q46.68 10.40 46.68 10.46L46.68 10.46L46.68 10.51L46.68 10.51Q46.68 10.64 46.53 10.64L46.53 10.64L46.46 10.64L46.46 10.64Q46.37 10.64 46.31 10.55L46.31 10.55L46.31 10.48L46.41 10.48L46.41 10.48Q46.41 10.56 46.50 10.56L46.50 10.56L46.53 10.56L46.53 10.56Q46.55 10.56 46.57 10.51L46.57 10.51L46.57 10.51Q46.57 10.49 46.34 10.40L46.34 10.40L46.33 10.36L46.33 10.28L46.33 10.28Q46.33 10.23 46.49 10.19ZM48.05 6.62L48.05 1.93L49.99 1.93L49.99 5.84L51.95 5.84L51.95 1.93L53.60 1.93L53.60 7.50L52.92 7.50L52.92 7.75L53.60 7.75L53.60 11.73L51.99 11.73L51.99 11.73Q51.95 11.73 51.95 11.70L51.95 11.70L51.95 7.46L49.99 7.46L49.99 11.70L49.99 11.70Q49.99 11.73 49.96 11.73L49.96 11.73L48.33 11.73L48.33 6.62L48.05 6.62ZM53.60 7.75L53.60 7.50L54.47 7.50L54.47 7.75L53.60 7.75Z"></path></g><!----><!----></svg>